<?xml version="1.0" encoding="utf-8"?>
<!-- Generator: Adobe Illustrator 19.1.0, SVG Export Plug-In . SVG Version: 6.00 Build 0)  -->
<svg version="1.1" id="Layer_1" xmlns="http://www.w3.org/2000/svg" xmlns:xlink="http://www.w3.org/1999/xlink" x="0px" y="0px"
	 viewBox="-235 243 20 16" style="enable-background:new -235 243 20 16;" xml:space="preserve">
<style type="text/css">
	.st0{fill:none;}
	.st1{fill:#FF4081;}
</style>
<path class="st0" d="M-237,239h24v24h-24V239z"/>
<path class="st1" d="M-226,256h2v-1h1c0.6,0,1-0.4,1-1v-3c0-0.6-0.4-1-1-1h-3v-1h4v-2h-2v-1h-2v1h-1c-0.6,0-1,0.4-1,1v3
	c0,0.6,0.4,1,1,1h3v1h-4v2h2V256z M-217,243h-16c-1.1,0-2,0.9-2,2l0,12c0,1.1,0.9,2,2,2h16c1.1,0,2-0.9,2-2v-12
	C-215,243.9-215.9,243-217,243z M-217,257h-16v-12h16V257z"/>
</svg>
