<?xml version="1.0" encoding="utf-8"?>
<!-- Generator: Adobe Illustrator 20.1.0, SVG Export Plug-In . SVG Version: 6.00 Build 0)  -->
<svg version="1.1" id="Layer_1" xmlns="http://www.w3.org/2000/svg" xmlns:xlink="http://www.w3.org/1999/xlink" x="0px" y="0px"
	 viewBox="0 0 24 24" style="enable-background:new 0 0 24 24;" xml:space="preserve">
<style type="text/css">
	.st0{fill:#EC407A;}
	.st1{fill:none;}
</style>
<path class="st0" d="M19,2H5C3.9,2,3,2.9,3,4v14c0,1.1,0.9,2,2,2h4l3,3l3-3h4c1.1,0,2-0.9,2-2V4C21,2.9,20.1,2,19,2z M12,5.3
	c1.5,0,2.7,1.2,2.7,2.7s-1.2,2.7-2.7,2.7S9.3,9.5,9.3,8S10.5,5.3,12,5.3z M18,16H6v-0.9c0-2,4-3.1,6-3.1s6,1.1,6,3.1V16z"/>
<path class="st1" d="M0,0h24v24H0V0z"/>
</svg>
