<?xml version="1.0" encoding="utf-8"?>
<!-- Generator: Adobe Illustrator 19.1.0, SVG Export Plug-In . SVG Version: 6.00 Build 0)  -->
<svg version="1.1" id="Layer_1" xmlns="http://www.w3.org/2000/svg" xmlns:xlink="http://www.w3.org/1999/xlink" x="0px" y="0px"
	 viewBox="-236 241 22 19" style="enable-background:new -236 241 22 19;" xml:space="preserve">
<style type="text/css">
	.st0{fill:none;}
	.st1{fill:#FF4081;}
</style>
<path class="st0" d="M-237,239h24v24h-24V239z"/>
<path class="st1" d="M-219.8,248l-4.4-6.6c-0.2-0.3-0.5-0.4-0.8-0.4c-0.3,0-0.6,0.1-0.8,0.4l-4.4,6.6h-4.8c-0.6,0-1,0.4-1,1
	c0,0.1,0,0.2,0,0.3l2.5,9.3c0.2,0.8,1,1.5,1.9,1.5h13c0.9,0,1.7-0.6,1.9-1.5l2.5-9.3l0-0.3c0-0.6-0.4-1-1-1H-219.8z M-228,248l3-4.4
	l3,4.4H-228z M-225,256c-1.1,0-2-0.9-2-2c0-1.1,0.9-2,2-2s2,0.9,2,2C-223,255.1-223.9,256-225,256z"/>
</svg>
